<svg width="24" height="24" viewBox="0 0 24 24" fill="none" xmlns="http://www.w3.org/2000/svg">
<g id="Arrows/arrow-right">
<g id="Vector">
<path fill-rule="evenodd" clip-rule="evenodd" d="M4.125 12C4.125 11.5168 4.51675 11.125 5 11.125H19C19.4832 11.125 19.875 11.5168 19.875 12C19.875 12.4832 19.4832 12.875 19 12.875H5C4.51675 12.875 4.125 12.4832 4.125 12Z" fill="#4760FF"/>
<path fill-rule="evenodd" clip-rule="evenodd" d="M19.6187 11.3813C19.9604 11.723 19.9604 12.277 19.6187 12.6187L13.6187 18.6187C13.277 18.9604 12.723 18.9604 12.3813 18.6187C12.0396 18.277 12.0396 17.723 12.3813 17.3813L18.3813 11.3813C18.723 11.0396 19.277 11.0396 19.6187 11.3813Z" fill="#4760FF"/>
<path fill-rule="evenodd" clip-rule="evenodd" d="M12.3813 5.38128C12.723 5.03957 13.277 5.03957 13.6187 5.38128L19.6187 11.3813C19.9604 11.723 19.9604 12.277 19.6187 12.6187C19.277 12.9604 18.723 12.9604 18.3813 12.6187L12.3813 6.61872C12.0396 6.27701 12.0396 5.72299 12.3813 5.38128Z" fill="#4760FF"/>
</g>
</g>
</svg>
