<svg width="32" height="32" viewBox="0 0 32 32" fill="none" xmlns="http://www.w3.org/2000/svg">
<path id="Vector" d="M16 0C7.17474 0 0 7.17474 0 16C0 24.8253 7.17474 32 16 32C24.8253 32 32 24.8253 32 16C32 7.17474 24.8253 0 16 0ZM3.40211 10.6779C5.49071 5.76012 10.3411 2.32421 16 2.32421C21.6589 2.32421 26.5095 5.76006 28.5979 10.6779C29.002 11.6546 28.1938 12.7326 27.1496 12.6316C25.2969 12.4969 23.4442 12.3957 21.5918 12.3285C21.0192 12.2949 20.4802 12.0926 20.0761 11.7223C18.9981 10.7791 17.5834 10.2066 16.034 10.2066C14.4845 10.2066 13.0698 10.7792 11.992 11.7223C11.554 12.0928 11.0153 12.3285 10.4763 12.3285C8.58953 12.3957 6.73684 12.4969 4.88415 12.6316C3.80638 12.7326 2.99789 11.6549 3.40198 10.6779H3.40211ZM11.3516 28.8674C6.80433 27.2168 3.36842 23.2419 2.52632 18.3579C2.35785 17.2799 3.36842 16.4378 4.41257 16.7747C8.9262 18.2905 12.2947 22.1307 13.1368 26.8126L13.2042 27.2168C13.4401 28.2945 12.3958 29.2377 11.3516 28.8674ZM16.0001 18.8968C14.5853 18.8968 13.4063 17.7516 13.4063 16.3031C13.4063 14.8884 14.5515 13.7094 16.0001 13.7094C17.4484 13.7094 18.5938 14.8546 18.5938 16.3031C18.5938 17.7516 17.4147 18.8968 16.0001 18.8968ZM20.6485 28.8674C19.6044 29.2379 18.5938 28.3284 18.7958 27.2506L18.8633 26.8464C19.7054 22.1305 23.0738 18.2901 27.5875 16.7743C28.5981 16.4373 29.6422 17.3133 29.4738 18.3574C28.6316 23.2416 25.1958 27.2164 20.6485 28.8669L20.6485 28.8674Z" fill="#A9B2D6"/>
</svg>
