<svg width="16" height="17" viewBox="0 0 16 17" fill="none" xmlns="http://www.w3.org/2000/svg">
<g id="Objects/calendar">
<path id="Vector" fill-rule="evenodd" clip-rule="evenodd" d="M5.33301 1.25C5.65517 1.25 5.91634 1.51117 5.91634 1.83333V2.58333H10.083V1.83333C10.083 1.51117 10.3442 1.25 10.6663 1.25C10.9885 1.25 11.2497 1.51117 11.2497 1.83333V2.58333H11.9997C12.508 2.58333 12.9955 2.78527 13.355 3.14471C13.7144 3.50416 13.9163 3.99167 13.9163 4.5V12.5C13.9163 13.0083 13.7144 13.4958 13.355 13.8553C12.9955 14.2147 12.508 14.4167 11.9997 14.4167H3.99967C3.49134 14.4167 3.00383 14.2147 2.64439 13.8553C2.28494 13.4958 2.08301 13.0083 2.08301 12.5V4.5C2.08301 3.99167 2.28494 3.50416 2.64439 3.14471C3.00383 2.78527 3.49134 2.58333 3.99967 2.58333H4.74967V1.83333C4.74967 1.51117 5.01084 1.25 5.33301 1.25ZM4.74967 3.75H3.99967C3.80076 3.75 3.61 3.82902 3.46934 3.96967C3.32869 4.11032 3.24967 4.30109 3.24967 4.5V6.58333H12.7497V4.5C12.7497 4.30109 12.6707 4.11032 12.53 3.96967C12.3894 3.82902 12.1986 3.75 11.9997 3.75H11.2497V4.5C11.2497 4.82217 10.9885 5.08333 10.6663 5.08333C10.3442 5.08333 10.083 4.82217 10.083 4.5V3.75H5.91634V4.5C5.91634 4.82217 5.65517 5.08333 5.33301 5.08333C5.01084 5.08333 4.74967 4.82217 4.74967 4.5V3.75ZM12.7497 7.75H3.24967V12.5C3.24967 12.6989 3.32869 12.8897 3.46934 13.0303C3.61 13.171 3.80076 13.25 3.99967 13.25H11.9997C12.1986 13.25 12.3894 13.171 12.53 13.0303C12.6707 12.8897 12.7497 12.6989 12.7497 12.5V7.75Z" fill="#A9B2D6"/>
</g>
</svg>
