<svg width="16" height="17" viewBox="0 0 16 17" fill="none" xmlns="http://www.w3.org/2000/svg">
<g id="Objects/clock">
<g id="Vector">
<path fill-rule="evenodd" clip-rule="evenodd" d="M5.48099 2.41775C6.27972 2.08691 7.13579 1.91663 8.00033 1.91663C8.86486 1.91663 9.72093 2.08691 10.5197 2.41775C11.3184 2.7486 12.0441 3.23352 12.6554 3.84484C13.2668 4.45616 13.7517 5.1819 14.0825 5.98063C14.4134 6.77935 14.5837 7.63542 14.5837 8.49996C14.5837 9.36449 14.4134 10.2206 14.0825 11.0193C13.7517 11.818 13.2668 12.5438 12.6554 13.1551C12.0441 13.7664 11.3184 14.2513 10.5197 14.5822C9.72093 14.913 8.86486 15.0833 8.00033 15.0833C7.13579 15.0833 6.27972 14.913 5.48099 14.5822C4.68227 14.2513 3.95652 13.7664 3.34521 13.1551C2.73389 12.5438 2.24896 11.818 1.91812 11.0193C1.58728 10.2206 1.41699 9.36449 1.41699 8.49996C1.41699 7.63542 1.58728 6.77935 1.91812 5.98063C2.24896 5.1819 2.73389 4.45616 3.34521 3.84484C3.95652 3.23352 4.68227 2.7486 5.48099 2.41775ZM8.00033 3.08329C7.289 3.08329 6.58464 3.2234 5.92746 3.49561C5.27028 3.76782 4.67315 4.16681 4.17016 4.6698C3.66718 5.17278 3.26819 5.76991 2.99598 6.42709C2.72377 7.08427 2.58366 7.78863 2.58366 8.49996C2.58366 9.21129 2.72377 9.91565 2.99598 10.5728C3.26819 11.23 3.66718 11.8271 4.17016 12.3301C4.67315 12.8331 5.27028 13.2321 5.92746 13.5043C6.58464 13.7765 7.289 13.9166 8.00033 13.9166C8.71165 13.9166 9.41601 13.7765 10.0732 13.5043C10.7304 13.2321 11.3275 12.8331 11.8305 12.3301C12.3335 11.8271 12.7325 11.23 13.0047 10.5728C13.2769 9.91565 13.417 9.21129 13.417 8.49996C13.417 7.78863 13.2769 7.08427 13.0047 6.42709C12.7325 5.76991 12.3335 5.17278 11.8305 4.6698C11.3275 4.16681 10.7304 3.76782 10.0732 3.49561C9.41601 3.2234 8.71165 3.08329 8.00033 3.08329Z" fill="#A9B2D6"/>
<path fill-rule="evenodd" clip-rule="evenodd" d="M7.51496 8.17638C7.69367 7.90833 8.05584 7.83589 8.3239 8.0146L10.3239 9.34793C10.592 9.52663 10.6644 9.88881 10.4857 10.1569C10.307 10.4249 9.94481 10.4974 9.67675 10.3187L7.67675 8.98532C7.40869 8.80662 7.33626 8.44444 7.51496 8.17638Z" fill="#A9B2D6"/>
<path fill-rule="evenodd" clip-rule="evenodd" d="M8.00033 4.58329C8.32249 4.58329 8.58366 4.84446 8.58366 5.16663V8.49996C8.58366 8.82212 8.32249 9.08329 8.00033 9.08329C7.67816 9.08329 7.41699 8.82212 7.41699 8.49996V5.16663C7.41699 4.84446 7.67816 4.58329 8.00033 4.58329Z" fill="#A9B2D6"/>
</g>
</g>
</svg>
