<svg width="32" height="32" viewBox="0 0 32 32" fill="none" xmlns="http://www.w3.org/2000/svg">
<g id="Brand/facebook-2">
<path id="vector" d="M17.9998 29.1845C24.4149 28.2194 29.3332 22.6841 29.3332 16.0001C29.3332 8.63628 23.3636 2.66675 15.9998 2.66675C8.63604 2.66675 2.6665 8.63628 2.6665 16.0001C2.6665 22.6841 7.58482 28.2194 13.9998 29.1845V20.0001H11.9998C10.8953 20.0001 9.99984 19.1046 9.99984 18.0001C9.99984 16.8955 10.8953 16.0001 11.9998 16.0001H13.9998V13.3334C13.9998 10.7561 16.0892 8.66675 18.6665 8.66675H19.3332C20.4377 8.66675 21.3332 9.56217 21.3332 10.6667C21.3332 11.7713 20.4377 12.6667 19.3332 12.6667H18.6665C18.2984 12.6667 17.9998 12.9652 17.9998 13.3334V16.0001H19.9998C21.1044 16.0001 21.9998 16.8955 21.9998 18.0001C21.9998 19.1046 21.1044 20.0001 19.9998 20.0001H17.9998V29.1845Z" fill="#4760FF"/>
</g>
</svg>
