<svg width="200" height="200" viewBox="0 0 200 200" fill="none" xmlns="http://www.w3.org/2000/svg">
<path d="M103.434 37.4997C100.617 36.7129 97.7957 35.9358 94.9493 35.2571C85.949 33.108 76.6199 32.6064 67.3693 33.0883C47.8081 34.1113 39.274 44.3504 46.0316 53.9011C52.7892 63.4518 61.3233 73.3516 52.0776 82.5679C42.8319 91.7841 7.97905 99.9676 11.5321 116.344C15.0851 132.721 46.3751 135.111 43.9214 145.69C41.4677 156.268 25.4497 159.342 33.2525 173.673C41.0554 188.004 69.8819 175.38 79.1276 182.884C88.3733 190.389 93.3593 196.532 108.646 198.922C123.933 201.312 134.965 182.545 151.341 175.379C167.717 168.214 184.418 165.824 187.617 149.103C190.817 132.382 160.233 121.464 161.657 104.404C162.368 95.8759 168.188 89.2218 172.728 82.4056C180.393 70.8828 186.714 50.1241 169.783 43.3324C162.422 40.3816 153.972 41.1784 146.228 41.3652C138.169 41.5374 129.812 42.4423 121.778 41.557C115.497 40.8489 109.466 39.1718 103.434 37.4997Z" fill="#F2F5FD"/>
<path d="M29.8416 84.9971C27.6375 85.0036 25.5255 85.8839 23.9669 87.4458C22.4084 89.0077 21.5299 91.1242 21.5234 93.333C21.5234 97.9362 29.8416 106.611 29.8416 106.611C29.8416 106.611 38.1598 97.9165 38.1598 93.333C38.1533 91.1242 37.2749 89.0077 35.7163 87.4458C34.1577 85.8839 32.0457 85.0036 29.8416 84.9971ZM29.8416 96.3084C29.1476 96.3093 28.4689 96.1041 27.8914 95.7185C27.3138 95.3329 26.8633 94.7844 26.5968 94.1422C26.3304 93.5001 26.2599 92.7931 26.3943 92.1108C26.5288 91.4286 26.8621 90.8015 27.3521 90.3091C27.8421 89.8166 28.4669 89.4809 29.1474 89.3442C29.8278 89.2076 30.5334 89.2762 31.1749 89.5415C31.8165 89.8067 32.3651 90.2566 32.7515 90.8344C33.1378 91.4121 33.3446 92.0916 33.3455 92.7871C33.3462 93.2489 33.2561 93.7063 33.0803 94.1331C32.9046 94.56 32.6467 94.948 32.3213 95.275C31.9959 95.602 31.6095 95.8615 31.184 96.0388C30.7585 96.2161 30.3024 96.3077 29.8416 96.3084Z" fill="#140C40"/>
<path d="M173.013 55.7305H151.081C150.22 55.7305 149.393 56.0735 148.784 56.684C148.175 57.2946 147.832 58.1227 147.832 58.9862V70.7351C147.832 71.5986 148.175 72.4267 148.784 73.0373C149.393 73.6478 150.22 73.9908 151.081 73.9908H151.763C151.081 75.5056 149.771 77.8121 147.666 79.1842C147.666 79.1842 152.112 78.8744 156.744 73.9908H173.003C173.864 73.9908 174.691 73.6478 175.3 73.0373C175.909 72.4267 176.252 71.5986 176.252 70.7351V58.9862C176.252 58.1244 175.911 57.2978 175.303 56.6875C174.696 56.0772 173.873 55.7331 173.013 55.7305Z" fill="#140C40"/>
<path d="M158.28 64.4402C158.28 64.1085 158.182 63.7843 157.998 63.5085C157.815 63.2327 157.553 63.0178 157.247 62.8908C156.942 62.7639 156.605 62.7307 156.281 62.7954C155.956 62.8601 155.658 63.0198 155.424 63.2544C155.19 63.4889 155.03 63.7877 154.966 64.113C154.901 64.4383 154.934 64.7755 155.061 65.082C155.188 65.3884 155.402 65.6503 155.677 65.8346C155.953 66.0189 156.276 66.1172 156.607 66.1172C156.826 66.1172 157.043 66.074 157.246 65.99C157.448 65.9059 157.632 65.7828 157.787 65.6275C157.942 65.4722 158.065 65.2879 158.149 65.085C158.232 64.8821 158.276 64.6647 158.276 64.4451L158.28 64.4402Z" fill="white"/>
<path d="M162.295 66.1172C163.219 66.1172 163.968 65.3664 163.968 64.4402C163.968 63.514 163.219 62.7632 162.295 62.7632C161.371 62.7632 160.622 63.514 160.622 64.4402C160.622 65.3664 161.371 66.1172 162.295 66.1172Z" fill="white"/>
<path d="M169.651 64.4402C169.651 64.1085 169.553 63.7843 169.369 63.5085C169.185 63.2327 168.924 63.0178 168.618 62.8908C168.312 62.7639 167.976 62.7307 167.651 62.7954C167.327 62.8601 167.028 63.0198 166.794 63.2544C166.56 63.4889 166.401 63.7877 166.336 64.113C166.272 64.4383 166.305 64.7755 166.432 65.082C166.558 65.3884 166.773 65.6503 167.048 65.8346C167.323 66.0189 167.647 66.1172 167.978 66.1172C168.421 66.1172 168.847 65.9405 169.161 65.626C169.475 65.3115 169.651 64.885 169.651 64.4402Z" fill="white"/>
<path d="M40.5199 184.671C38.9983 184.701 37.4995 184.298 36.1964 183.511C29.9934 179.783 26.3373 174.245 24.7914 167.242C24.4084 165.808 24.3647 164.304 24.6638 162.85C24.9086 161.651 25.4897 160.547 26.339 159.667C27.1883 158.787 28.2705 158.168 29.4584 157.883C29.8968 157.729 30.3776 157.753 30.799 157.948C31.2204 158.144 31.5493 158.496 31.7159 158.931C32.2941 160.542 32.7855 162.184 33.1881 163.849C33.2572 164.214 33.1969 164.591 33.0177 164.916C32.8385 165.241 32.5516 165.493 32.2066 165.629C31.4811 165.998 30.7356 166.326 29.9737 166.613C29.8769 166.634 29.7851 166.673 29.7037 166.73C29.6224 166.787 29.553 166.859 29.4996 166.943C29.4463 167.026 29.4099 167.12 29.3928 167.218C29.3756 167.315 29.3779 167.416 29.3996 167.513C29.4148 167.59 29.443 167.665 29.483 167.734C30.8886 171.685 33.192 175.254 36.2111 178.16C36.6626 178.598 36.9865 178.524 37.3987 178.071C37.9192 177.476 38.4961 176.932 39.1213 176.448C39.4366 176.177 39.8373 176.026 40.2529 176.022C40.6684 176.017 41.0723 176.159 41.3934 176.424C42.5747 177.3 43.7052 178.242 44.7796 179.247C46.0212 180.466 45.9377 181.637 44.6912 182.852C43.5864 183.974 42.0922 184.625 40.5199 184.671Z" fill="#140C40"/>
<path d="M49.2258 170.281C49.1228 171.063 49.0639 171.855 48.9068 172.632C48.8915 172.782 48.8467 172.928 48.775 173.062C48.7033 173.195 48.6061 173.312 48.4889 173.408C48.3718 173.503 48.237 173.575 48.0923 173.618C47.9476 173.661 47.7958 173.675 47.6456 173.66C47.5744 173.65 47.5039 173.635 47.4346 173.616C46.7917 173.463 46.4531 172.858 46.6003 172.061C47.056 169.616 46.566 167.089 45.2298 164.993C43.8936 162.896 41.8114 161.388 39.406 160.775C39.1847 160.73 38.9679 160.666 38.7582 160.583C38.5011 160.484 38.2889 160.295 38.1614 160.05C38.034 159.806 38.0001 159.523 38.0662 159.255C38.0809 159.116 38.1228 158.982 38.1894 158.859C38.2561 158.736 38.3463 158.628 38.4548 158.54C38.5633 158.452 38.6879 158.387 38.8217 158.348C38.9554 158.308 39.0956 158.296 39.2342 158.311H39.352C40.4318 158.546 41.4831 158.897 42.4878 159.358C44.5063 160.38 46.2038 161.941 47.3929 163.868C48.5819 165.796 49.2162 168.015 49.2258 170.281Z" fill="#140C40"/>
<path d="M45.1573 170.891C45.1181 171.186 45.0788 171.757 44.9659 172.308C44.9471 172.462 44.898 172.612 44.8214 172.747C44.7447 172.883 44.6421 173.002 44.5194 173.097C44.3967 173.193 44.2563 173.263 44.1064 173.304C43.9565 173.345 43.7999 173.356 43.6458 173.336H43.6016C43.4399 173.305 43.286 173.241 43.1488 173.15C43.0117 173.059 42.894 172.941 42.8026 172.804C42.7113 172.667 42.6481 172.512 42.6168 172.35C42.5855 172.188 42.5866 172.022 42.6202 171.86C42.7181 171.145 42.7329 170.42 42.6643 169.701C42.203 166.982 40.5983 165.246 37.9433 164.488C37.0796 164.242 36.6379 163.696 36.795 163.013C36.952 162.329 37.6096 161.955 38.5077 162.147C42.2913 162.983 45.1671 166.637 45.1573 170.891Z" fill="#140C40"/>
<path d="M38.6698 171.299C38.7533 170.627 38.5861 169.947 38.2003 169.391C37.8144 168.835 37.2372 168.441 36.5792 168.285C35.745 168.029 35.3573 167.439 35.5536 166.731C35.7499 166.022 36.3977 165.747 37.2565 165.968C38.4906 166.3 39.5584 167.078 40.2535 168.153C40.9486 169.227 41.2219 170.522 41.0205 171.786C40.8684 172.652 40.4169 173.05 39.6759 172.971C38.9348 172.893 38.5962 172.386 38.6502 171.496C38.6551 171.432 38.6649 171.363 38.6698 171.299Z" fill="#140C40"/>
<path fill-rule="evenodd" clip-rule="evenodd" d="M40.4025 35.719C35.4523 36.1517 31.7895 40.5239 32.2213 45.4846C32.369 47.1818 32.978 48.7304 33.9138 50.0142L33.3516 52.8074C33.2094 53.514 33.9038 54.0982 34.5735 53.8355L37.2214 52.7969C38.6451 53.4984 40.2724 53.8313 41.9661 53.6832C46.9162 53.2505 50.5791 48.8783 50.1473 43.9176C49.7155 38.9569 45.3525 35.2862 40.4025 35.719ZM39.3339 46.9107C41.3048 48.5689 43.0567 48.657 43.6698 48.6261C44.6025 48.5792 45.4457 47.7886 45.7267 46.9325C45.7956 46.7228 45.7529 46.4815 45.5919 46.3082C45.0465 45.7215 44.3432 45.3285 43.6553 44.9362C43.358 44.7663 42.9777 44.8602 42.7952 45.1535L42.3283 46.0226C42.2765 46.119 42.1604 46.1607 42.0612 46.1148C41.6787 45.9379 41.1165 45.6284 40.701 45.2788C40.286 44.9296 39.9081 44.4504 39.6911 44.1252C39.6341 44.0397 39.6517 43.9264 39.7284 43.8581L40.5025 43.1698C40.7307 42.9341 40.7424 42.5666 40.5376 42.3161C40.084 41.7615 39.5502 41.0529 38.8288 40.6164C38.6318 40.4972 38.3961 40.5025 38.2099 40.6025C37.4162 41.0286 36.7817 41.9978 36.8973 42.9281C36.9731 43.5387 37.3631 45.2525 39.3339 46.9107Z" fill="#140C40"/>
<path d="M95.7048 93.6874C95.489 93.6872 95.2793 93.6159 95.1081 93.4843C94.9369 93.3527 94.8137 93.1683 94.7576 92.9595C94.6447 92.5366 83.3526 50.5274 81.3602 37.2243C80.0597 28.5294 82.641 23.3852 85.0359 20.6016C86.3971 19.0194 88.0886 17.7562 89.9906 16.9013C91.8927 16.0463 93.959 15.6206 96.0434 15.6542C104.764 15.6542 109.225 23.5819 110.363 27.772C111.345 31.4211 113.023 37.7702 113.043 37.8342C113.097 38.0827 113.053 38.3426 112.92 38.5593C112.787 38.7759 112.575 38.9325 112.329 38.9962C112.084 39.0598 111.823 39.0256 111.602 38.9006C111.381 38.7756 111.216 38.5697 111.144 38.326C111.144 38.262 109.46 31.9326 108.469 28.2786C107.478 24.6245 103.576 17.6214 96.0434 17.6214C94.242 17.5921 92.4561 17.9586 90.8113 18.6953C89.1665 19.4319 87.7027 20.5208 86.5229 21.8852C84.3979 24.3442 82.1061 28.9769 83.3036 36.9342C85.2665 50.129 96.5537 92.0153 96.6568 92.448C96.7243 92.6998 96.6894 92.9681 96.5596 93.194C96.4299 93.4199 96.216 93.585 95.9648 93.6529C95.8802 93.6768 95.7926 93.6884 95.7048 93.6874Z" fill="#140C40"/>
<path d="M40.3927 140.841C36.29 140.841 32.9529 139.419 31.2697 135.298C27.8884 127.041 38.41 121.631 50.5904 115.361C54.5164 113.344 58.5699 111.254 62.437 108.967C77.1055 100.209 76.0455 94.371 76.0307 94.312C75.9766 94.0634 76.0207 93.8035 76.1537 93.5869C76.2867 93.3702 76.4983 93.2136 76.7441 93.1499C76.9899 93.0863 77.2507 93.1206 77.4718 93.2455C77.6929 93.3705 77.8571 93.5765 77.9299 93.8202C78.1213 94.548 79.3335 101.197 63.4431 110.664C59.5171 113.005 55.4341 115.09 51.4885 117.141C40.1669 122.964 30.3863 127.995 33.0854 134.58C36.0888 141.923 46.3601 138.436 56.2978 135.072C62.4518 132.987 68.2622 131.015 71.8888 132.003C75.118 132.888 75.7805 135.131 76.1338 136.336C76.1828 136.528 76.2468 136.715 76.3252 136.897C76.4943 137.09 76.5811 137.342 76.567 137.599C76.5529 137.856 76.439 138.097 76.2497 138.27C76.0603 138.444 75.8107 138.536 75.5542 138.528C75.2977 138.519 75.0548 138.41 74.8775 138.224C74.5654 137.837 74.3516 137.38 74.2542 136.892C73.9402 135.824 73.5476 134.497 71.3735 133.901C68.326 133.065 62.7904 134.949 56.9259 136.936C51.3216 138.8 45.305 140.841 40.3927 140.841Z" fill="#140C40"/>
<path d="M143.523 121.498C143.352 121.501 143.182 121.459 143.032 121.375C142.92 121.313 142.82 121.229 142.74 121.127C142.66 121.026 142.6 120.91 142.564 120.786C142.529 120.662 142.518 120.532 142.533 120.403C142.547 120.275 142.587 120.151 142.65 120.038C147.773 110.802 157.009 108.072 165.165 105.668C168.01 104.885 170.81 103.946 173.552 102.854C176.678 101.532 178.459 98.2857 177.61 95.4775C176.163 90.6776 167.545 86.8908 147.704 90.658C138.812 92.3448 132 91.6415 127.451 88.499C123.525 85.8089 122.843 82.3122 122.814 82.1647C122.772 81.9109 122.83 81.6508 122.977 81.4401C123.124 81.2293 123.348 81.0846 123.6 81.037C123.852 80.9894 124.113 81.0427 124.327 81.1855C124.54 81.3282 124.689 81.5491 124.742 81.8007C124.835 82.263 127.127 92.5612 147.317 88.7252C173.895 83.6794 178.651 92.1678 179.47 94.9071C180.624 98.7332 178.401 102.933 174.298 104.669C171.489 105.796 168.619 106.76 165.7 107.556C157.524 109.971 149.078 112.474 144.348 120.997C144.265 121.144 144.145 121.268 144.001 121.356C143.857 121.444 143.692 121.493 143.523 121.498Z" fill="#140C40"/>
<path d="M113.092 44.0699C112.663 44.0691 112.245 43.9273 111.904 43.6661C111.563 43.405 111.316 43.0389 111.203 42.624L109.195 35.2471C109.127 34.9978 109.109 34.7375 109.142 34.4811C109.174 34.2247 109.256 33.9772 109.384 33.7528C109.512 33.5283 109.683 33.3313 109.886 33.1729C110.09 33.0146 110.323 32.898 110.572 32.8299C110.821 32.7617 111.08 32.7434 111.336 32.7758C111.592 32.8083 111.839 32.8909 112.063 33.019C112.287 33.1471 112.484 33.3182 112.642 33.5224C112.8 33.7266 112.916 33.9601 112.984 34.2094L114.991 41.5863C115.059 41.8356 115.077 42.0958 115.044 42.3521C115.012 42.6083 114.929 42.8557 114.801 43.0799C114.673 43.3041 114.502 43.5009 114.298 43.6589C114.094 43.817 113.861 43.9332 113.612 44.001C113.443 44.0484 113.268 44.0715 113.092 44.0699Z" fill="#140C40"/>
<path d="M140.878 120.181C140.878 120.181 143.219 116.158 145.56 117.835C147.901 119.512 142.885 122.861 144.893 123.53C146.9 124.199 150.909 122.546 152.254 126.884C153.599 131.221 149.574 133.248 145.565 132.244C141.556 131.241 138.204 127.218 140.878 120.181Z" fill="white"/>
<path d="M147.567 132.741C146.87 132.74 146.176 132.653 145.501 132.48C144.453 132.242 143.468 131.78 142.614 131.127C141.76 130.473 141.055 129.643 140.549 128.693C139.347 126.392 139.386 123.416 140.647 120.092V120.057C140.706 119.954 142.085 117.598 143.857 117.23C144.172 117.162 144.499 117.162 144.814 117.232C145.129 117.302 145.425 117.438 145.683 117.633C147.155 118.68 146.109 120.293 145.359 121.474C144.956 122.108 144.539 122.762 144.647 123.072C144.647 123.107 144.696 123.215 144.946 123.298C145.589 123.452 146.25 123.513 146.909 123.48C148.921 123.48 151.424 123.48 152.44 126.81C153.127 129.047 152.406 130.434 151.675 131.206C151.126 131.723 150.481 132.125 149.775 132.389C149.07 132.652 148.319 132.772 147.567 132.741ZM141.099 120.289C139.892 123.47 139.852 126.298 140.981 128.467C141.457 129.354 142.118 130.129 142.918 130.739C143.718 131.349 144.639 131.78 145.619 132.003C147.911 132.579 150.163 132.131 151.36 130.867C152.273 129.883 152.499 128.546 152.013 126.933C151.1 123.982 148.897 123.982 146.949 123.952C146.231 123.987 145.512 123.918 144.814 123.746C144.678 123.711 144.552 123.645 144.446 123.553C144.341 123.461 144.258 123.345 144.205 123.215C144.014 122.679 144.456 121.99 144.966 121.189C145.859 119.782 146.438 118.73 145.418 118.016C145.216 117.86 144.983 117.75 144.735 117.694C144.486 117.638 144.228 117.637 143.98 117.692C142.507 118.031 141.222 120.082 141.099 120.289Z" fill="#140C40"/>
<path d="M150.546 132.018C150.497 132.018 150.45 132.004 150.408 131.979C150.355 131.943 150.317 131.887 150.304 131.823C150.292 131.76 150.304 131.694 150.34 131.639C153.152 127.341 148.612 124.139 148.416 124.007C148.363 123.969 148.326 123.912 148.314 123.848C148.302 123.783 148.316 123.717 148.352 123.662C148.37 123.636 148.393 123.613 148.42 123.595C148.446 123.577 148.477 123.565 148.508 123.559C148.54 123.553 148.572 123.553 148.603 123.56C148.635 123.567 148.665 123.58 148.691 123.598C148.74 123.633 153.824 127.208 150.742 131.905C150.721 131.938 150.692 131.966 150.658 131.986C150.624 132.006 150.585 132.017 150.546 132.018Z" fill="#140C40"/>
<path d="M142.64 174.293L93.7465 181.94C90.4879 182.432 87.1656 179.717 86.3313 175.832L60.9401 57.7716C59.4678 52.2044 64.4685 49.2389 67.7271 48.7274L114.22 42.1669C117.479 41.6751 120.797 44.3898 121.636 48.275L150.29 166.144C151.125 170.034 149.118 173.324 142.64 174.293Z" fill="white"/>
<path d="M92.9616 182.25C89.865 182.25 86.8861 179.565 86.0911 175.886L60.6998 57.8207C60.4228 56.899 60.3495 55.9279 60.4851 54.9749C60.6208 54.022 60.962 53.1101 61.485 52.3027C63.0162 49.9618 65.784 48.7815 67.693 48.4864L114.186 41.9209C117.563 41.3947 121.013 44.2225 121.872 48.2257L150.526 166.089C150.747 166.919 150.79 167.786 150.653 168.634C150.516 169.481 150.202 170.29 149.731 171.007C148.475 172.827 146.105 174.007 142.674 174.524L93.786 182.171C93.5138 182.22 93.2381 182.246 92.9616 182.25ZM115.006 42.3488C114.755 42.3489 114.503 42.3686 114.255 42.4078L67.7617 48.9733C65.9606 49.2536 63.345 50.3651 61.8973 52.5732C61.4108 53.3246 61.0941 54.1734 60.9695 55.0604C60.8449 55.9473 60.9153 56.8508 61.1759 57.7076L86.572 175.778C87.3818 179.535 90.5814 182.171 93.7075 181.679L142.601 174.012C145.894 173.521 148.156 172.404 149.324 170.703C149.758 170.039 150.048 169.292 150.173 168.508C150.298 167.725 150.256 166.924 150.05 166.158L121.395 48.3339C120.654 44.8766 117.882 42.3488 115.006 42.3488Z" fill="#140C40"/>
<path d="M145.982 172.955L97.0985 180.603C93.84 181.094 90.5225 178.375 89.6882 174.49L64.2823 56.4292C63.448 52.544 65.411 48.9834 68.6695 48.4719L117.563 40.8245C120.821 40.3327 124.144 43.0524 124.978 46.9375L150.369 164.998C151.208 168.883 149.24 172.444 145.982 172.955Z" fill="#140C40"/>
<path d="M96.3084 180.898C93.2068 180.898 90.228 178.212 89.4379 174.534L64.0417 56.4734C63.8039 55.4725 63.7704 54.4338 63.9432 53.4196C64.1161 52.4055 64.4918 51.4368 65.0478 50.5718C65.4539 49.9596 65.9816 49.438 66.598 49.0394C67.2144 48.6408 67.9062 48.374 68.6302 48.2555L117.523 40.6081C120.905 40.0769 124.355 42.9047 125.218 46.908L150.59 164.939C150.836 165.943 150.875 166.987 150.707 168.008C150.538 169.028 150.164 170.003 149.608 170.875C149.201 171.487 148.672 172.008 148.055 172.407C147.438 172.805 146.746 173.072 146.021 173.191L97.1279 180.839C96.8568 180.88 96.5827 180.9 96.3084 180.898ZM118.353 41.0015C118.101 41.0016 117.85 41.0213 117.602 41.0605L68.7087 48.7079C68.0499 48.8159 67.4204 49.059 66.8597 49.422C66.299 49.785 65.8191 50.2602 65.4502 50.8177C64.9298 51.6326 64.5793 52.5447 64.4199 53.4989C64.2605 54.4531 64.2955 55.4298 64.5227 56.3701L89.9139 174.431C90.7237 178.183 93.9233 180.824 97.0543 180.332L145.947 172.68C146.606 172.572 147.234 172.329 147.794 171.966C148.354 171.602 148.833 171.127 149.201 170.57C149.724 169.756 150.076 168.844 150.236 167.89C150.396 166.935 150.361 165.958 150.134 165.018L124.737 46.9866C123.996 43.5441 121.224 41.0113 118.358 41.0113L118.353 41.0015Z" fill="#140C40"/>
<path d="M146.223 158.929L91.0282 167.56L67.9189 60.1076L123.108 51.4717L146.223 158.929Z" fill="#F3ED80"/>
<path d="M91.0278 167.806C90.9725 167.806 90.9189 167.787 90.876 167.752C90.8331 167.717 90.8035 167.668 90.7922 167.614L67.678 60.1567C67.6648 60.0907 67.6771 60.0222 67.7124 59.9649C67.7318 59.9373 67.7566 59.914 67.7853 59.8962C67.814 59.8785 67.8459 59.8667 67.8792 59.8616L123.069 51.2306C123.131 51.2216 123.194 51.2363 123.246 51.2718C123.298 51.3074 123.334 51.3611 123.348 51.4224L146.463 158.875C146.47 158.908 146.47 158.942 146.463 158.975C146.457 159.008 146.443 159.039 146.423 159.067C146.385 159.121 146.327 159.158 146.261 159.17L91.0671 167.806H91.0278ZM68.2129 60.3092L91.2094 167.284L145.918 158.727L122.917 51.7519L68.2129 60.3092Z" fill="#140C40"/>
<path d="M99.2922 84.7809C99.8565 87.4907 99.5081 89.8365 98.5266 90.0185C97.5451 90.2005 96.2937 88.1497 95.7343 85.4399C95.1748 82.7301 95.5183 80.3842 96.4998 80.2023C97.4813 80.0203 98.7327 82.0465 99.2922 84.7809Z" fill="#140C40"/>
<path d="M111.414 82.5088C111.973 85.2186 111.63 87.5644 110.643 87.7513C109.657 87.9382 108.41 85.8825 107.851 83.1727C107.292 80.4629 107.635 78.117 108.617 77.9351C109.598 77.7531 110.84 79.799 111.414 82.5088Z" fill="#140C40"/>
<path d="M105.216 106.543C99.415 106.543 93.6978 102.977 90.1398 96.9429C90.0398 96.721 90.0254 96.4698 90.0995 96.2379C90.1736 96.006 90.3308 95.8099 90.5409 95.6875C90.751 95.5651 90.9989 95.5251 91.2366 95.5754C91.4744 95.6256 91.6851 95.7624 91.828 95.9593C95.489 102.166 101.599 105.476 107.414 104.394C113.072 103.346 117.391 98.2461 118.407 91.4102C118.426 91.281 118.47 91.1569 118.537 91.0448C118.604 90.9328 118.692 90.835 118.797 90.7572C118.901 90.6793 119.02 90.6229 119.147 90.591C119.273 90.5592 119.404 90.5526 119.533 90.5717C119.662 90.5907 119.786 90.635 119.898 90.7021C120.01 90.7691 120.107 90.8575 120.185 90.9623C120.262 91.0672 120.319 91.1863 120.351 91.3129C120.382 91.4395 120.389 91.5712 120.37 91.7003C119.226 99.3822 114.29 105.121 107.792 106.331C106.941 106.48 106.079 106.551 105.216 106.543Z" fill="#140C40"/>
<path d="M137.784 134.395L135.069 139.775L135.507 139.997L138.222 134.616L137.784 134.395Z" fill="white"/>
<path d="M102.079 49.6813L86.832 52.0469C86.5076 52.0648 86.1884 51.96 85.9376 51.7533C85.6867 51.5465 85.5225 51.2529 85.4775 50.9305C85.4287 50.7894 85.4082 50.64 85.4171 50.491C85.4259 50.3419 85.4641 50.196 85.5292 50.0618C85.5944 49.9275 85.6854 49.8074 85.7969 49.7083C85.9085 49.6093 86.0384 49.5333 86.1793 49.4846L86.2774 49.4551L101.515 47.1289C101.839 47.111 102.159 47.2158 102.409 47.4225C102.66 47.6293 102.825 47.923 102.87 48.2453C102.959 48.5329 102.93 48.8442 102.79 49.1107C102.65 49.3772 102.411 49.5771 102.124 49.6666L102.079 49.6813Z" fill="white"/>
<path d="M86.6897 52.3223C86.4086 52.2903 86.1401 52.1875 85.9092 52.0235C85.6783 51.8596 85.4926 51.6398 85.3692 51.3847C85.2458 51.1295 85.1888 50.8472 85.2034 50.564C85.2181 50.2809 85.3039 50.006 85.453 49.765C85.5427 49.6329 85.6588 49.5209 85.794 49.4363C85.9292 49.3516 86.0804 49.2961 86.2382 49.2732L101.515 46.8683C101.901 46.844 102.281 46.9646 102.582 47.2065C102.884 47.4484 103.084 47.7943 103.144 48.1765C103.195 48.3866 103.202 48.6048 103.166 48.8178C103.129 49.0308 103.05 49.2343 102.933 49.4158C102.843 49.5481 102.726 49.66 102.59 49.7447C102.454 49.8293 102.302 49.8848 102.143 49.9076L86.8909 52.2928C86.8247 52.3078 86.7574 52.3177 86.6897 52.3223ZM101.677 47.3503H101.569L86.302 49.7404C86.1148 49.7754 85.9489 49.8833 85.8407 50.0404C85.7606 50.1669 85.7071 50.3085 85.6835 50.4565C85.6598 50.6045 85.6666 50.7558 85.7033 50.901C85.7382 51.1604 85.8669 51.3979 86.0651 51.5683C86.2632 51.7388 86.5169 51.8304 86.778 51.8256L102.03 49.4404C102.123 49.4237 102.212 49.388 102.29 49.3356C102.369 49.2831 102.436 49.215 102.487 49.1355C102.649 48.8648 102.697 48.5408 102.621 48.2346C102.544 47.9284 102.35 47.6651 102.08 47.5027C101.951 47.4274 101.809 47.3758 101.662 47.3503H101.677Z" fill="#140C40"/>
<path d="M121.636 167.761C121.356 166.468 120.252 165.553 119.182 165.725C118.112 165.898 117.445 167.083 117.71 168.376C117.975 169.67 119.094 170.584 120.164 170.412C121.234 170.24 121.911 169.055 121.636 167.761Z" fill="white"/>
<path d="M119.908 170.678C118.799 170.678 117.734 169.729 117.455 168.43C117.37 168.073 117.359 167.702 117.421 167.341C117.483 166.979 117.618 166.634 117.818 166.326C117.965 166.102 118.157 165.912 118.382 165.767C118.607 165.622 118.859 165.526 119.123 165.485C120.335 165.293 121.577 166.291 121.871 167.712C121.957 168.068 121.969 168.438 121.908 168.799C121.846 169.16 121.712 169.505 121.513 169.812C121.364 170.036 121.171 170.226 120.945 170.371C120.72 170.517 120.467 170.614 120.203 170.658C120.105 170.672 120.007 170.679 119.908 170.678ZM119.418 165.952H119.182C118.984 165.985 118.795 166.058 118.626 166.167C118.457 166.276 118.312 166.419 118.201 166.586C118.04 166.84 117.932 167.124 117.883 167.42C117.834 167.717 117.846 168.02 117.916 168.312C118.166 169.478 119.153 170.309 120.11 170.157C120.308 170.125 120.498 170.053 120.667 169.943C120.836 169.834 120.981 169.691 121.091 169.522C121.254 169.27 121.363 168.987 121.412 168.691C121.461 168.395 121.449 168.092 121.376 167.801C121.298 167.319 121.063 166.876 120.708 166.542C120.353 166.207 119.898 166 119.413 165.952H119.418Z" fill="#140C40"/>
<path d="M78.6905 137.974C78.6905 137.974 77.2771 133.548 74.632 134.664C71.9869 135.78 76.1484 140.152 74.048 140.369C71.9476 140.585 68.3897 138.077 66.1372 142.036C63.8846 145.995 67.3689 148.833 71.501 148.729C75.6331 148.626 79.775 145.424 78.6905 137.974Z" fill="white"/>
<path d="M71.28 148.975C68.8263 148.975 66.6719 147.991 65.7199 146.373C65.1751 145.464 64.7678 143.949 65.926 141.918C67.6338 138.908 70.0826 139.459 72.0456 139.872C72.685 140.048 73.3456 140.134 74.0086 140.128C74.2687 140.098 74.3276 140 74.3472 139.97C74.5239 139.69 74.2589 138.987 74.0037 138.254C73.5129 136.941 72.87 135.141 74.519 134.437C74.8126 134.304 75.1314 134.235 75.4538 134.235C75.7763 134.235 76.0951 134.304 76.3887 134.437C78.0327 135.195 78.8719 137.787 78.9111 137.88V137.919C79.4264 141.441 78.813 144.352 77.1445 146.339C76.4432 147.156 75.5751 147.812 74.5989 148.263C73.6227 148.715 72.5612 148.951 71.4861 148.955L71.28 148.975ZM69.7293 140.029C68.5024 140.029 67.305 140.482 66.3529 142.159C65.5285 143.605 65.4549 144.977 66.137 146.123C67.0301 147.598 69.1305 148.542 71.496 148.483C72.5022 148.478 73.4954 148.255 74.4082 147.831C75.3211 147.407 76.1321 146.79 76.7862 146.024C78.3615 144.155 78.9357 141.387 78.4498 138.018C78.3713 137.787 77.5812 135.51 76.1973 134.875C75.9666 134.768 75.7154 134.713 75.4612 134.713C75.207 134.713 74.9558 134.768 74.7251 134.875C73.5914 135.367 73.9104 136.503 74.4797 138.072C74.8036 138.962 75.0833 139.734 74.7791 140.216C74.6991 140.331 74.5936 140.425 74.4709 140.492C74.3483 140.558 74.2118 140.595 74.0724 140.6C73.3535 140.619 72.6357 140.531 71.9425 140.339C71.2178 140.158 70.4759 140.054 69.7293 140.029Z" fill="#140C40"/>
<path d="M69.4302 142.169C69.2879 142.7 68.9395 143.064 68.6254 142.98C68.3113 142.897 68.1886 142.405 68.3358 141.874C68.4831 141.342 68.8266 140.974 69.1407 141.057C69.4547 141.141 69.5725 141.638 69.4302 142.169Z" fill="#140C40"/>
<path d="M67.4623 143.029C67.32 143.56 66.9716 143.924 66.6575 143.846C66.3434 143.767 66.2207 143.265 66.363 142.734C66.5053 142.203 66.8538 141.839 67.1728 141.923C67.4918 142.006 67.6046 142.483 67.4623 143.029Z" fill="#140C40"/>
<path d="M68.6942 145.188C68.5519 145.719 68.2034 146.088 67.8894 146.005C67.5753 145.921 67.4575 145.424 67.5998 144.893C67.7421 144.362 68.0906 143.998 68.4046 144.082C68.7187 144.165 68.8365 144.657 68.6942 145.188Z" fill="#140C40"/>
<path d="M68.9003 148.218C68.8517 148.218 68.8041 148.204 68.7638 148.177C68.7235 148.15 68.6924 148.111 68.6745 148.065C68.6617 148.036 68.6548 148.005 68.6543 147.973C68.6538 147.942 68.6597 147.91 68.6716 147.881C68.6835 147.852 68.7012 147.825 68.7236 147.802C68.7461 147.78 68.7727 147.762 68.8021 147.751C69.2117 147.579 69.5886 147.338 69.9161 147.038C69.9649 146.998 70.0268 146.979 70.0892 146.984C70.1515 146.989 70.2096 147.018 70.2516 147.064C70.2936 147.111 70.3163 147.172 70.3151 147.234C70.3138 147.297 70.2887 147.357 70.2449 147.402C69.8764 147.742 69.4512 148.015 68.9886 148.208C68.9598 148.216 68.93 148.219 68.9003 148.218Z" fill="#140C40"/>
<path d="M70.6912 146.792C70.6379 146.793 70.5859 146.775 70.544 146.742C70.5182 146.723 70.4965 146.699 70.48 146.671C70.4636 146.643 70.4528 146.612 70.4483 146.58C70.4437 146.548 70.4455 146.516 70.4535 146.485C70.4615 146.453 70.4755 146.424 70.4949 146.398C70.8703 145.898 71.1544 145.335 71.3341 144.736C71.5449 144.122 71.6276 143.471 71.5769 142.824C71.5263 142.177 71.3434 141.547 71.0396 140.974C71.0072 140.917 70.9982 140.849 71.0148 140.786C71.0313 140.722 71.0719 140.668 71.1279 140.634C71.1853 140.604 71.2517 140.597 71.3143 140.613C71.3769 140.629 71.4312 140.668 71.4666 140.723C71.8017 141.356 72.0046 142.051 72.0628 142.766C72.121 143.48 72.0334 144.199 71.8052 144.878C71.6094 145.533 71.2986 146.148 70.8875 146.693C70.8641 146.723 70.8344 146.748 70.8004 146.765C70.7665 146.782 70.7291 146.791 70.6912 146.792Z" fill="#140C40"/>
<path d="M163.978 150.411H103.827L97.0986 159.264V128.177C97.0986 126.769 97.6564 125.419 98.6493 124.423C99.6421 123.427 100.989 122.867 102.394 122.866H163.978C165.383 122.867 166.729 123.427 167.722 124.423C168.715 125.419 169.273 126.769 169.273 128.177V145.11C169.272 146.516 168.713 147.865 167.72 148.859C166.727 149.853 165.381 150.411 163.978 150.411Z" fill="white" stroke="#140C40" stroke-width="1.13113" stroke-linecap="round" stroke-linejoin="round"/>
<path d="M106.82 129.229H121.768" stroke="#4760FF" stroke-width="2.26226" stroke-linecap="round" stroke-linejoin="round"/>
<path d="M106.82 132.962H137.016" stroke="#4760FF" stroke-width="2.26226" stroke-linecap="round" stroke-linejoin="round"/>
<path d="M106.914 136.636H133.281" stroke="#4760FF" stroke-width="2.26226" stroke-linecap="round" stroke-linejoin="round"/>
<path d="M106.82 140.423H137.016" stroke="#4760FF" stroke-width="2.26226" stroke-linecap="round" stroke-linejoin="round"/>
<path d="M106.82 144.156H125.263" stroke="#4760FF" stroke-width="2.26226" stroke-linecap="round" stroke-linejoin="round"/>
<path d="M158.874 137.993C161.823 137.993 164.213 135.598 164.213 132.643C164.213 129.688 161.823 127.292 158.874 127.292C155.925 127.292 153.535 129.688 153.535 132.643C153.535 135.598 155.925 137.993 158.874 137.993Z" fill="#FBF8B4" stroke="#140C40" stroke-width="1.13113" stroke-linecap="round" stroke-linejoin="round"/>
<path d="M161.058 135.982C160.739 135.982 159.792 135.269 160.116 134.684C160.44 134.099 161.058 133.13 161.058 133.13C161.336 132.587 161.492 131.989 161.514 131.379C161.642 130.469 161.127 128.92 158.874 128.92C156.622 128.92 156.106 130.474 156.239 131.379C156.261 131.988 156.415 132.586 156.69 133.13C156.69 133.13 157.309 134.113 157.633 134.684C157.956 135.254 157.014 135.982 156.69 135.982C156.166 136.097 155.653 136.262 155.159 136.474C155.159 136.474 157.309 137.989 158.874 137.989C160.44 137.989 162.594 136.474 162.594 136.474C162.099 136.262 161.584 136.097 161.058 135.982Z" fill="#140C40"/>
</svg>
