<svg width="32" height="32" viewBox="0 0 32 32" fill="none" xmlns="http://www.w3.org/2000/svg">
<g id="Brand/twitter-2">
<path id="vector" d="M6.12501 6.64514C6.61721 6.58776 7.10062 6.80807 7.38022 7.21718C9.34739 10.0956 11.7102 11.293 14.3319 11.5654C14.4605 10.4438 14.7632 9.33564 15.3321 8.35996C16.1667 6.92843 17.524 5.87451 19.4629 5.48507C22.1421 4.94694 24.1821 5.9172 25.3659 7.10548L27.7549 6.65887C28.2653 6.56348 28.7845 6.77295 29.0859 7.19572C29.3871 7.6185 29.4156 8.1777 29.1588 8.62891L26.8661 12.6583C27.0752 18.4736 25.4592 22.5318 22.0137 25.3278C20.186 26.8109 17.5707 27.6521 14.6999 27.9118C11.8066 28.1736 8.53619 27.857 5.2851 26.9077C4.71473 26.7412 4.32339 26.2173 4.3255 25.6231C4.32759 25.0289 4.72261 24.5078 5.29414 24.3453C6.9291 23.8804 8.1735 23.4783 9.29837 22.7763C7.70042 21.9279 6.52301 20.8189 5.68969 19.5545C4.53146 17.797 4.10198 15.8378 4.01671 14.0708C3.93146 12.3039 4.18679 10.6674 4.45571 9.48628C4.60879 8.81394 4.78759 8.13846 5.03405 7.49319C5.21305 7.02812 5.63282 6.70252 6.12501 6.64514Z" fill="#4760FF"/>
</g>
</svg>
