<svg width="40" height="40" viewBox="0 0 40 40" fill="none" xmlns="http://www.w3.org/2000/svg">
<g id="Brand/whatsapp">
<path id="Vector" d="M20.0002 3.3335C29.2048 3.3335 36.6668 10.7954 36.6668 20.0002C36.6668 29.2048 29.2048 36.6668 20.0002 36.6668C17.0608 36.6668 14.2953 35.9046 11.895 34.5664L11.3863 34.2708L6.33308 35.7572C5.11576 36.1153 3.98053 35.0551 4.19995 33.849L4.24318 33.6672L5.72943 28.614C4.20858 26.0992 3.3335 23.1495 3.3335 20.0002C3.3335 10.7954 10.7954 3.3335 20.0002 3.3335ZM20.0002 6.66683C12.6364 6.66683 6.66683 12.6364 6.66683 20.0002C6.66683 22.6283 7.4255 25.0742 8.73513 27.1365C9.06575 27.6573 9.20639 28.297 9.09436 28.9317L9.0307 29.203L8.29461 31.7057L10.7973 30.9697C11.5181 30.7577 12.2687 30.8873 12.8638 31.2652C14.9262 32.5748 17.372 33.3335 20.0002 33.3335C27.364 33.3335 33.3335 27.364 33.3335 20.0002C33.3335 12.6364 27.364 6.66683 20.0002 6.66683ZM15.1695 11.9736C15.5293 11.8195 15.965 11.8477 16.3094 12.0989C17.1501 12.7122 17.8176 13.5348 18.3909 14.3392L18.9356 15.1293C19.0221 15.2571 19.1067 15.3824 19.1898 15.504C19.494 15.9488 19.459 16.54 19.1143 16.9434L18.988 17.0705L17.449 18.2135C17.2965 18.3268 17.2457 18.5327 17.3372 18.6993C17.6855 19.3332 18.3058 20.2763 19.0157 20.9862C19.7263 21.6968 20.7142 22.3573 21.3915 22.7447C21.5379 22.8284 21.7158 22.802 21.8352 22.6929L21.8992 22.6178L22.9005 21.0927C23.2843 20.5818 24.0013 20.4702 24.5225 20.8308L25.4273 21.4615C26.3263 22.1032 27.1919 22.793 27.876 23.6692C28.1455 24.0143 28.1855 24.4655 28.0248 24.8405C27.3648 26.3807 25.6943 27.6923 23.9568 27.6283L23.6926 27.6131L23.3727 27.5814C23.315 27.5745 23.2551 27.5667 23.1931 27.5579L22.7969 27.4922C21.2575 27.2015 18.7878 26.3285 16.2306 23.7713C13.6734 21.2141 12.8004 18.7444 12.5097 17.2049L12.444 16.8088L12.4023 16.4625L12.3794 16.17C12.3769 16.1259 12.375 16.0843 12.3736 16.0451C12.3095 14.3051 13.6283 12.6342 15.1695 11.9736Z" fill="#140C40"/>
</g>
</svg>
